<?xml version="1.0" encoding="UTF-8"?>
<svg width="1000px" height="1000px" viewBox="0 0 1000 1000" version="1.1" xmlns="http://www.w3.org/2000/svg" xmlns:xlink="http://www.w3.org/1999/xlink">
    <!-- Generator: Sketch 61 (89581) - https://sketch.com -->
    <title>earth</title>
    <desc>Created with Sketch.</desc>
    <defs>
        <ellipse id="path-1" cx="491.02" cy="490.48" rx="490.5" ry="490"></ellipse>
    </defs>
    <g id="earth" stroke="none" stroke-width="1" fill="none" fill-rule="evenodd">
        <ellipse id="Oval" stroke="#000000" stroke-width="25" fill="#979CA1" cx="500.5" cy="499.5" rx="490.5" ry="490"></ellipse>
        <g id="Path-2" transform="translate(9.480000, 9.020000)">
            <mask id="mask-2" fill="white">
                <use xlink:href="#path-1"></use>
            </mask>
            <use id="Mask" fill="#00A0EA" xlink:href="#path-1"></use>
            <path d="M-1.05160325e-12,297.714644 C10.2428227,448.830088 22.2803769,520.952221 36.1126627,514.081041 C56.8610914,503.774272 45.6355877,462.546486 57.9346124,462.546486 C70.233637,462.546486 67.8379496,535.916009 89.6165006,568.781204 C104.135535,590.691334 116.158083,606.716408 125.684144,616.856427 C95.8625241,643.886999 88.4071191,679.900015 103.317929,724.895475 C125.684144,792.388664 218.634353,886.895232 244.521682,908.594859 C271.765197,931.431286 230.927631,787.987856 291.352233,744.155938 C351.776835,700.324021 380.992159,649.167023 333.042126,598.434316 C285.092093,547.701608 183.303504,598.434316 150.325702,586.689711 C117.3479,574.945106 101.640575,566.491048 125.684144,536.490026 C149.727714,506.489003 196.798449,474.898185 259.668087,472.302506 C322.537724,469.706826 319.755494,533.10536 341.370581,527.585045 C384.039281,516.687811 357.785681,453.505795 348.141235,437.449475 C338.496789,421.393155 315.445327,388.577476 276.993692,337.342421 C241.495349,290.042491 256.524749,235.012051 219.129732,214.996585 C181.734716,194.981119 61.9840947,202.762961 57.9346124,201.745183 C22.7852989,192.910914 8.22707581,203.837193 14.2599432,234.524018 L-1.05160325e-12,297.714644 Z" id="Path" stroke="#1B4374" stroke-width="9" fill="#72C33C" mask="url(#mask-2)"></path>
            <path d="M464.526364,440.170202 C455.91216,524.558141 464.526364,582.3928 525.642585,643.143066 C586.758805,703.893333 616.362542,622.42315 649.492601,672.17873 C682.62266,721.934309 727.190474,872.318219 794.4071,911.041159 C839.218185,936.856453 858.586661,920.33656 852.512529,861.481482 C834.437699,650.165799 815.069223,526.498638 794.4071,490.48 C773.744977,454.461362 783.014821,454.461362 822.216632,490.48 C856.03958,533.434739 883.055346,554.912108 903.263928,554.912108 C914.786709,554.912108 961.464987,565.444103 945.898274,490.98 C938.817085,457.106801 978.038486,429.018803 1063.56248,406.716006 L794.4071,47.7729925 C608.494538,77.3089104 528.99429,117.598624 555.906356,168.642135 C596.274456,245.2074 655.943035,130.816429 682.555601,142.568475 C709.168167,154.320521 746.842857,191.843226 697.334109,231.096294 C647.82536,270.349362 585.100669,239.348169 555.906356,234.524018 C526.712044,229.699866 474.327424,231.096294 491.02,284.219357 C507.712576,337.342421 444.55387,384.319297 525.642585,384.319297 C606.731299,384.319297 675.930949,347.042487 697.334109,349.463173 C718.737269,351.883859 750.004361,364.584009 723.669235,406.716006 C697.334109,448.848003 473.140568,355.782262 464.526364,440.170202 Z" id="Path-3" stroke="#1B4374" stroke-width="9" fill="#72C33C" mask="url(#mask-2)"></path>
            <path d="M737.290754,-27.5176603 C781.620093,-9.1759252 767.31496,6.74840565 694.375354,20.2553322 C656.600247,27.250511 601.476549,16.8829262 536.907928,20.2553322 C496.837036,22.3482268 397.374394,36.7470019 238.52,63.4516575 L289.814724,7.4623397 L458.507706,-120.02 L737.290754,-27.5176603 Z" id="Path-4" stroke="#1B4374" stroke-width="9" fill="#FFFFFF" mask="url(#mask-2)"></path>
            <path d="M356.999936,82.5805999 C396.003593,63.089895 411.960783,72.9526002 404.871505,112.168715 C394.237588,170.992888 366.526902,229.786231 338.70822,242.405006 C310.889538,255.023781 270.909396,210.891295 270.909396,172.934993 C270.909396,147.630791 299.606243,117.51266 356.999936,82.5805999 Z" id="Path-5" stroke="#1B4374" stroke-width="9" fill="#FFFFFF" mask="url(#mask-2)"></path>
            <path d="M312.899605,981 C338.506298,948.815427 369.708778,932.723141 406.507044,932.723141 C461.704444,932.723141 471.148259,949.692943 522.005882,949.692943 C572.863506,949.692943 576.255673,932.723141 622.27949,932.723141 C652.962035,932.723141 694.458392,944.594362 746.76856,968.336805 L707.559638,1074.20354 L312.899605,981 Z" id="Path-13" stroke="#1B4374" stroke-width="9" fill="#FFFFFF" mask="url(#mask-2)"></path>
            <path d="M12.3599797,311.530791 C123.440778,268.420462 186.457101,263.81508 201.408951,297.714644 C216.360801,331.614209 234.045974,360.482426 254.464468,384.319297 C297.62131,425.986195 305.753109,446.819644 278.859865,446.819644 C238.52,446.819644 139.924605,445.272227 110.944347,420.350718 C81.9640898,395.429209 39.2960708,420.285842 25.8280252,407.857525 C16.8493282,399.571981 12.3599797,367.46307 12.3599797,311.530791 Z" id="Path-15" fill="#4B8325" mask="url(#mask-2)"></path>
            <path d="M512.924736,455.484392 C502.669535,486.963514 519.082235,603.330698 558.608863,621.658195 C573.30497,628.472408 636.170524,569.950839 677.197907,584.56605 C696.922878,591.59269 694.357333,648.600819 709.180659,661.698368 C725.189434,675.843353 762.426441,675.843353 780.041811,653.2838 C797.657182,630.724248 778.084322,551.327855 762.426441,506.509046 C746.76856,461.690238 697.856858,443.304276 690.57059,443.304276 C683.284321,443.304276 523.179936,424.00527 512.924736,455.484392 Z" id="Path-14" fill="#FFE983" mask="url(#mask-2)"></path>
            <path d="M153.353452,645.854985 C177.510355,631.369673 287.205828,587.02618 301.452965,616.871612 C315.700103,646.717044 321.220621,683.889814 294.346925,693.84 C267.473228,703.790186 232.27296,728.745006 210.363318,744.948817 C188.453676,761.152628 189.561539,798.48132 171.457496,784.725881 C153.353452,770.970443 124.933454,716.923846 124.933454,697.237509 C124.933454,677.551173 129.19655,660.340296 153.353452,645.854985 Z" id="Path-6" fill="#4B8325" mask="url(#mask-2)"></path>
            <path d="M762.63346,72.8742086 C644.770048,91.614573 587.185577,110.610562 589.880046,129.862177 C593.921751,158.739598 619.491472,147.793618 630.455312,138.827897 C641.419153,129.862177 659.870564,112.713236 684.216914,112.713236 C694.462961,112.713236 715.152479,126.938195 735.932914,158.739598 C759.726097,195.15157 733.466777,257.390301 705.618782,261.961187 C677.770787,266.532073 643.242205,275.330888 610.247146,270.272685 C577.252086,265.214482 559.430879,254.703268 539.119572,261.961187 C516.67784,269.98038 497.085726,347.038983 518.51644,361.075266 C539.947154,375.111548 597.239815,330.13462 671.937428,329.470065 C746.635042,328.80551 757.50137,344.562873 762.426441,364.181793 C768.673905,389.068438 871.690001,403.940232 922.288758,375.871201 C956.021262,357.158513 973.725665,302.273275 975.401966,211.215486 L762.63346,72.8742086 Z" id="Path-7" fill="#4B8325" mask="url(#mask-2)"></path>
        </g>
    </g>
</svg>