<?xml version="1.0" encoding="UTF-8"?>
<svg width="1000px" height="1000px" viewBox="0 0 1000 1000" version="1.1" xmlns="http://www.w3.org/2000/svg" xmlns:xlink="http://www.w3.org/1999/xlink">
    <!-- Generator: Sketch 61 (89581) - https://sketch.com -->
    <title>jupiter</title>
    <desc>Created with Sketch.</desc>
    <defs>
        <ellipse id="path-1" cx="491.02" cy="490.48" rx="490.5" ry="490"></ellipse>
        <linearGradient x1="21.7445353%" y1="26.1397772%" x2="48.7444553%" y2="70.7431036%" id="linearGradient-3">
            <stop stop-color="#BD6A23" stop-opacity="0.592876728" offset="0%"></stop>
            <stop stop-color="#EB6079" stop-opacity="0" offset="100%"></stop>
        </linearGradient>
        <filter x="0.0%" y="0.0%" width="100.0%" height="100.0%" filterUnits="objectBoundingBox" id="filter-4">
            <feGaussianBlur stdDeviation="0" in="SourceGraphic"></feGaussianBlur>
        </filter>
        <linearGradient x1="4.52841192%" y1="47.8663053%" x2="95.8010248%" y2="51.7193016%" id="linearGradient-5">
            <stop stop-color="#D38B49" offset="0%"></stop>
            <stop stop-color="#D77A44" offset="100%"></stop>
        </linearGradient>
    </defs>
    <g id="jupiter" stroke="none" stroke-width="1" fill="none" fill-rule="evenodd">
        <ellipse id="Oval" stroke="#000000" stroke-width="25" fill="#979CA1" cx="500.5" cy="499.5" rx="490.5" ry="490"></ellipse>
        <g id="Path-2" transform="translate(9.480000, 9.020000)">
            <mask id="mask-2" fill="white">
                <use xlink:href="#path-1"></use>
            </mask>
            <use id="Mask" fill="#F5BF5C" xlink:href="#path-1"></use>
            <path d="M21.9580073,643.165145 C-19.9593358,545.1218 -19.9593358,421.827827 21.9580073,273.283225 C63.8753503,124.738623 171.833142,24.1181013 345.831383,-28.5783394 C398.660044,-38.5005535 445.658323,-38.5005535 486.82622,-28.5783394 C548.578066,-13.6950181 652.075417,121.878745 581.67154,147.149588 C511.267663,172.420431 460.499591,172.706168 414.469302,172.706168 C368.439012,172.706168 304.547375,143.579259 325.189379,213.698667 C345.831383,283.818075 446.485415,239.404595 477.038082,294.004638 C507.59075,348.604681 425.56554,426.878075 307.083146,427.378075 C188.600753,427.878075 99.346904,364.654404 89.5033197,396.016239 C79.6597354,427.378075 193.316312,546.842714 168.56673,619.288771 C152.067009,667.586142 103.197435,675.544933 21.9580073,643.165145 Z" id="Path-6" fill="url(#linearGradient-3)" filter="url(#filter-4)" mask="url(#mask-2)"></path>
            <path d="M321.775805,14.5865317 C374.950374,80.2685239 446.330694,105.59683 535.916764,90.5714512 C625.502834,75.546072 702.61469,57.0155883 767.252332,34.98 L929.47488,161.560934 L929.47488,194.742223 L851.332722,231.096294 L670.29587,194.742223 L535.916764,161.560934 L403.378582,170.689596 L290.216839,161.560934 L187.822506,103.161366 L145.283473,68.0333824 L243.084731,14.5865317 L321.775805,14.5865317 Z" id="Path-10" stroke="#871A1A" stroke-width="9" fill="#C85306" mask="url(#mask-2)"></path>
            <path d="M116.597858,471.320289 C269.368669,505.730722 235.043638,551.351111 425.10182,539.677838 C615.160002,528.004565 688.478822,509.725537 764.073582,528.004565 C839.668342,546.283592 890.008995,574.232181 947.824671,574.232181 C986.368455,574.232181 1032.18331,564.915985 1085.26925,546.283592 L1151.52,649.085489 L1018.81703,674.165975 L922.327314,687.661262 L817.455331,705.00527 L686.472639,674.165975 L425.10182,610.176974 L230.486504,598.193524 C217.696016,615.860079 179.733134,618.206671 116.597858,605.233299 C53.4625828,592.259927 7.21842344,572.610025 -22.1346198,546.283592 L-31.6209312,471.320289 C-34.6556122,448.38 14.7506509,448.38 116.597858,471.320289 Z" id="Path-9" stroke="#871A1A" stroke-width="9" fill="#FFB237" mask="url(#mask-2)"></path>
            <path d="M-68.48,543.78038 C0.808339951,631.816541 61.2393869,675.834622 112.813141,675.834622 C190.173772,675.834622 489.269707,727.300885 582.929492,775.702636 C676.589278,824.104387 1021.46456,805.442365 1041.00591,805.442365 C1054.03347,805.442365 1073.20484,784.185128 1098.52,741.670654 C1082.75691,712.392005 1068.18069,697.121266 1054.79135,695.858437 C1008.80647,691.521331 1071.75449,651.595336 1017.73285,662.658593 C901.309225,686.501341 821.233317,705.00527 711.869098,675.834622 C666.770025,663.805375 584.033468,617.717189 490.037532,606.763607 C368.215817,592.567418 192.033892,593.98 145.283473,593.98 C90.068546,593.98 36.379051,559.646667 -15.7850121,490.98 L-68.48,543.78038 Z" id="Path-7" stroke="#871A1A" stroke-width="9" fill="#E9BCA6" mask="url(#mask-2)"></path>
            <path d="M-56.48,101.78038 C61.9469677,217.480718 146.947329,275.330888 198.521082,275.330888 C243.407688,275.330888 329.709275,273.713239 440.451886,297.714644 C520.570626,315.078894 565.979874,330.785239 605.29587,351.103063 C698.955655,399.504814 1033.46456,363.442365 1053.00591,363.442365 C1066.03347,363.442365 1085.20484,342.185128 1110.52,299.670654 C1094.75691,270.392005 1080.18069,255.121266 1066.79135,253.858437 C1020.80647,249.521331 1083.75449,209.595336 1029.73285,220.658593 C913.309225,244.501341 833.233317,263.00527 723.869098,233.834622 C678.770025,221.805375 596.033468,175.717189 502.037532,164.763607 C380.215817,150.567418 204.033892,151.98 157.283473,151.98 C102.068546,151.98 48.379051,117.646667 -3.78501214,48.98 L-56.48,101.78038 Z" id="Path-7" stroke="#871A1A" stroke-width="9" fill="#E9BCA6" mask="url(#mask-2)"></path>
            <path d="M226.113929,81.3736713 C282.490922,134.727553 355.9107,157.513402 446.373263,149.73122 C582.067108,138.057947 634.413776,119.77892 688.385373,138.057947 C742.35697,156.336975 778.298157,184.285563 819.576208,184.285563 C847.094909,184.285563 879.804863,174.969367 917.70607,156.336975 L965.006423,259.138872 L870.261878,284.219357 L801.372128,297.714644 L716.080926,284.219357 L622.125648,247.787497 L446.373263,220.230356 L307.42581,208.246906 L235.119318,208.246906 L158.827936,156.336975 L106.827105,103.161366 L187.412249,68.0333824 L226.113929,81.3736713 Z" id="Path-9" stroke="#871A1A" stroke-width="9" fill="#FFB237" mask="url(#mask-2)"></path>
            <path d="M120.718591,138.057947 C171.826989,196.242397 216.402079,225.334622 254.443862,225.334622 C311.506535,225.334622 556.314829,267.135788 627.222234,289.065078 C698.129638,310.994369 924.682439,310.994369 939.096509,310.994369 C948.705889,310.994369 962.847053,296.945135 981.52,268.846667 C969.892846,249.495958 959.14115,239.403292 949.264913,238.568669 C915.345596,235.702209 875.712563,251.601777 835.865169,258.913654 C749.988891,274.671692 710.975949,233.934302 649.031874,212.668163 C587.087799,191.402024 348.296672,184.043573 287.205301,184.043573 C246.47772,184.043573 203.938425,157.082837 159.587417,103.161366 L120.718591,138.057947 Z" id="Path-7" stroke="#871A1A" stroke-width="9" fill="#B55C2F" mask="url(#mask-2)"></path>
            <path d="M-44.48,628.876581 C23.3833869,687.061031 82.571636,716.153256 133.084747,716.153256 C208.854414,716.153256 435.28638,769.823543 527.02,801.813003 C618.75362,833.802463 1023.04925,801.813003 1042.18871,801.813003 C1054.94836,801.813003 1073.72546,787.763769 1098.52,759.665301 C1083.08109,740.314592 1068.80464,730.221926 1055.69065,729.387303 C1010.65148,726.520844 947.745239,752.353424 894.83458,759.665301 C780.805275,775.423339 767.517866,737.419395 685.266516,716.153256 C636.259413,703.482439 567.829765,652.998238 443.572503,645.181793 C359.281886,639.879463 209.373063,674.862207 176.586447,674.862207 C122.507046,674.862207 66.0219921,647.901471 7.13128631,593.98 L-44.48,628.876581 Z" id="Path-7" stroke="#871A1A" stroke-width="9" fill="#AD4C23" mask="url(#mask-2)"></path>
            <path d="M395.976851,694.901565 C414.531371,686.792487 451.045786,683.141648 495.616586,699.147057 C525.330452,709.81733 567.226296,729.05561 621.304117,756.861898 C633.976876,767.116629 626.297026,772.243994 598.264568,772.243994 C556.215881,772.243994 459.718983,749.418918 422.888061,735.33703 C386.057139,721.255142 377.42233,703.010643 395.976851,694.901565 Z" id="Path-4" fill="#F9B57A" mask="url(#mask-2)"></path>
            <path d="M67.9581445,299.758217 C98.0633661,307.782301 113.642637,342.812479 148.779286,342.812479 C183.915934,342.812479 302.316145,334.79212 340.816531,342.812479 C366.483454,348.159385 413.456005,362.782567 481.734184,386.682026 C492.805315,393.266772 492.805315,398.68633 481.734184,402.940699 C465.127487,409.322253 424.200576,390.391575 366.731538,380.216152 C309.2625,370.04073 272.205468,386.682026 194.930264,386.682026 C143.413461,386.682026 99.3977546,364.427412 62.8831434,319.918184 C46.1963298,301.128817 47.8879969,294.408828 67.9581445,299.758217 Z" id="Path-8" fill="url(#linearGradient-5)" mask="url(#mask-2)"></path>
            <path d="M116.186525,811.558685 C103.992966,801.288343 118.698975,796.153173 160.304552,796.153173 C222.712917,796.153173 299.387221,839.559323 355.02,850.055937 C410.652779,860.55255 498.86439,856.426187 585.732218,872.783548 C672.600045,889.140909 682.008179,921.541625 734.653763,921.541625 C769.750819,921.541625 777.841738,956.249234 758.92652,1025.66445 L331.570617,1030.99239 L116.186525,840.00519 L116.186525,811.558685 Z" id="Path-11" fill="#BD5935" mask="url(#mask-2)"></path>
        </g>
    </g>
</svg>