<?xml version="1.0" encoding="UTF-8"?>
<svg width="1000px" height="1000px" viewBox="0 0 1000 1000" version="1.1" xmlns="http://www.w3.org/2000/svg" xmlns:xlink="http://www.w3.org/1999/xlink">
    <!-- Generator: Sketch 61 (89581) - https://sketch.com -->
    <title>jupiter</title>
    <desc>Created with Sketch.</desc>
    <defs>
        <ellipse id="path-1" cx="491.02" cy="490.48" rx="490.5" ry="490"></ellipse>
        <linearGradient x1="21.7445353%" y1="26.1397772%" x2="48.7444553%" y2="70.7431036%" id="linearGradient-3">
            <stop stop-color="#FFE4EB" stop-opacity="0.592876728" offset="0%"></stop>
            <stop stop-color="#EB6079" stop-opacity="0" offset="100%"></stop>
        </linearGradient>
        <filter x="0.0%" y="0.0%" width="100.0%" height="100.0%" filterUnits="objectBoundingBox" id="filter-4">
            <feGaussianBlur stdDeviation="0" in="SourceGraphic"></feGaussianBlur>
        </filter>
        <linearGradient x1="4.52841192%" y1="47.8663053%" x2="95.8010248%" y2="51.7193016%" id="linearGradient-5">
            <stop stop-color="#FF859B" offset="0%"></stop>
            <stop stop-color="#C10023" stop-opacity="0.708740234" offset="100%"></stop>
        </linearGradient>
    </defs>
    <g id="jupiter" stroke="none" stroke-width="1" fill="none" fill-rule="evenodd">
        <ellipse id="Oval" stroke="#000000" stroke-width="25" fill="#979CA1" cx="500.5" cy="499.5" rx="490.5" ry="490"></ellipse>
        <g id="Path-2" transform="translate(9.480000, 9.020000)">
            <mask id="mask-2" fill="white">
                <use xlink:href="#path-1"></use>
            </mask>
            <use id="Mask" fill="#C10023" xlink:href="#path-1"></use>
            <path d="M21.9580073,643.165145 C-19.9593358,545.1218 -19.9593358,421.827827 21.9580073,273.283225 C63.8753503,124.738623 171.833142,24.1181013 345.831383,-28.5783394 C398.660044,-38.5005535 445.658323,-38.5005535 486.82622,-28.5783394 C548.578066,-13.6950181 652.075417,121.878745 581.67154,147.149588 C511.267663,172.420431 460.499591,172.706168 414.469302,172.706168 C368.439012,172.706168 304.547375,143.579259 325.189379,213.698667 C345.831383,283.818075 446.485415,239.404595 477.038082,294.004638 C507.59075,348.604681 425.56554,426.878075 307.083146,427.378075 C188.600753,427.878075 99.346904,364.654404 89.5033197,396.016239 C79.6597354,427.378075 193.316312,546.842714 168.56673,619.288771 C152.067009,667.586142 103.197435,675.544933 21.9580073,643.165145 Z" id="Path-6" fill="url(#linearGradient-3)" filter="url(#filter-4)" mask="url(#mask-2)"></path>
            <path d="M321.775805,14.5865317 C374.950374,80.2685239 446.330694,105.59683 535.916764,90.5714512 C625.502834,75.546072 702.61469,57.0155883 767.252332,34.98 L929.47488,161.560934 L929.47488,194.742223 L851.332722,231.096294 L670.29587,194.742223 L535.916764,161.560934 L403.378582,170.689596 L290.216839,161.560934 L187.822506,103.161366 L145.283473,68.0333824 L243.084731,14.5865317 L321.775805,14.5865317 Z" id="Path-10" stroke="#871A1A" stroke-width="9" fill="#E8642E" mask="url(#mask-2)"></path>
            <path d="M226.113929,81.3736713 C282.490922,134.727553 355.9107,157.513402 446.373263,149.73122 C582.067108,138.057947 660.039136,126.384674 688.385373,138.057947 C716.731609,149.73122 778.298157,184.285563 819.576208,184.285563 C847.094909,184.285563 879.804863,174.969367 917.70607,156.336975 L965.006423,259.138872 L870.261878,284.219357 L801.372128,297.714644 L716.080926,284.219357 L622.125648,247.787497 L446.373263,220.230356 L307.42581,208.246906 L235.119318,208.246906 L158.827936,156.336975 L106.827105,103.161366 L187.412249,68.0333824 L226.113929,81.3736713 Z" id="Path-9" stroke="#871A1A" stroke-width="9" fill="#D93F29" mask="url(#mask-2)"></path>
            <path d="M120.718591,138.057947 C171.826989,196.242397 216.402079,225.334622 254.443862,225.334622 C311.506535,225.334622 532.125389,259.349465 601.210629,291.338925 C670.29587,323.328386 924.682439,310.994369 939.096509,310.994369 C948.705889,310.994369 962.847053,296.945135 981.52,268.846667 C969.892846,249.495958 959.14115,239.403292 949.264913,238.568669 C915.345596,235.702209 867.970458,261.53479 828.123065,268.846667 C742.246786,284.604705 732.239944,246.600761 670.29587,225.334622 C608.351795,204.068484 348.296672,184.043573 287.205301,184.043573 C246.47772,184.043573 203.938425,157.082837 159.587417,103.161366 L120.718591,138.057947 Z" id="Path-7" stroke="#871A1A" stroke-width="9" fill="#EA4537" mask="url(#mask-2)"></path>
            <path d="M-20.48,347.876581 C47.3833869,406.061031 106.571636,435.153256 157.084747,435.153256 C232.854414,435.153256 459.28638,488.823543 551.02,520.813003 C642.75362,552.802463 1047.04925,520.813003 1066.18871,520.813003 C1078.94836,520.813003 1097.72546,506.763769 1122.52,478.665301 C1107.08109,459.314592 1092.80464,449.221926 1079.69065,448.387303 C1034.65148,445.520844 971.745239,471.353424 918.83458,478.665301 C804.805275,494.423339 791.517866,456.419395 709.266516,435.153256 C660.259413,422.482439 591.829765,371.998238 467.572503,364.181793 C383.281886,358.879463 233.373063,393.862207 200.586447,393.862207 C146.507046,393.862207 90.0219921,366.901471 31.1312863,312.98 L-20.48,347.876581 Z" id="Path-7" stroke="#871A1A" stroke-width="9" fill="#EF6A31" mask="url(#mask-2)"></path>
            <path d="M390.880265,413.637571 C409.434785,405.528493 445.949201,401.877654 490.52,417.883063 C520.233866,428.553336 562.12971,447.791616 616.207531,475.597904 C628.88029,485.852635 621.200441,490.98 593.167982,490.98 C551.119295,490.98 454.622397,468.154924 417.791475,454.073036 C380.960554,439.991149 372.325744,421.746649 390.880265,413.637571 Z" id="Path-4" fill="#930019" mask="url(#mask-2)"></path>
            <path d="M104.605189,232.874511 C134.71041,240.898595 150.289682,275.928773 185.42633,275.928773 C220.562978,275.928773 338.963189,267.908414 377.463575,275.928773 C403.130498,281.275679 450.103049,295.898861 518.381228,319.798321 C529.452359,326.383066 529.452359,331.802624 518.381228,336.056993 C501.774531,342.438547 460.84762,323.507869 403.378582,313.332446 C345.909544,303.157024 308.852512,319.798321 231.577308,319.798321 C180.060505,319.798321 136.044799,297.543706 99.5301874,253.034478 C82.8433738,234.245111 84.5350409,227.525122 104.605189,232.874511 Z" id="Path-8" fill="url(#linearGradient-5)" mask="url(#mask-2)"></path>
        </g>
    </g>
</svg>