<?xml version="1.0" encoding="UTF-8"?>
<svg width="1000px" height="1000px" viewBox="0 0 1000 1000" version="1.1" xmlns="http://www.w3.org/2000/svg" xmlns:xlink="http://www.w3.org/1999/xlink">
    <!-- Generator: Sketch 61 (89581) - https://sketch.com -->
    <title>mars</title>
    <desc>Created with Sketch.</desc>
    <defs>
        <linearGradient x1="27.7111635%" y1="7.73879347%" x2="68.7481197%" y2="91.8922404%" id="linearGradient-1">
            <stop stop-color="#CA853F" offset="0%"></stop>
            <stop stop-color="#BD6F2C" offset="100%"></stop>
        </linearGradient>
        <ellipse id="path-2" cx="491.02" cy="490.48" rx="490.5" ry="490"></ellipse>
    </defs>
    <g id="mars" stroke="none" stroke-width="1" fill="none" fill-rule="evenodd">
        <ellipse id="Oval" stroke="#000000" stroke-width="25" fill="#979CA1" cx="500.5" cy="499.5" rx="490.5" ry="490"></ellipse>
        <g id="Path-2" transform="translate(9.480000, 9.020000)">
            <mask id="mask-3" fill="white">
                <use xlink:href="#path-2"></use>
            </mask>
            <use id="Mask" fill="url(#linearGradient-1)" xlink:href="#path-2"></use>
            <path d="M23.52,677.473528 C27.6409602,653.577761 33.8336273,640.035411 42.0980012,636.846478 C54.4945621,632.063077 61.8599717,646.696137 82.4857526,640.001426 C103.111533,633.306715 95.3406787,560.638053 115.478763,557.14423 C128.904153,554.815015 140.105927,576.731933 149.084085,622.894982 C159.891325,612.635238 169.857714,609.1253 178.983251,612.365168 C192.671555,617.22497 225.852844,683.618475 252.965492,677.473528 C267.368208,673.273567 269.767388,658.677292 276.282075,655.168964 C282.796762,651.660636 289.651176,651.546154 308.164203,638.153312 C326.677231,624.760469 329.526041,563.666344 352.851493,559.685257 C368.401795,557.031199 381.631587,568.918133 392.540869,595.346058 C393.539933,598.328061 395.85649,598.827535 399.490541,596.84448 C404.941618,593.869897 427.220299,574.53482 440.037768,574.53482 C452.855238,574.53482 463.161224,589.36577 470.663269,589.36577 C478.165314,589.36577 508.200257,578.456192 514.536182,563.945789 C518.760132,554.272186 524.460136,532.889674 531.636195,499.798253 C533.643177,492.942822 537.094837,487.041589 541.991177,482.094554 C549.335688,474.674001 600.54326,447.875609 600.54326,418.248326 C600.54326,388.621044 575.249486,361.622974 556.366728,347.006196 C543.778223,337.261677 536.909541,326.660682 535.760683,315.203209 C544.780464,319.223165 553.095704,326.274793 560.706404,336.358093 C572.122455,351.483043 597.170962,368.019169 606.464266,372.618213 C615.757569,377.217257 629.335132,390.040945 631.647234,403.248981 C633.959335,416.457017 629.335132,465.614942 631.647234,470.687352 C633.959335,475.759762 695.746307,485.557467 707.630332,482.094554 C719.514356,478.631641 745.465272,470.263354 747.963461,444.25584 C750.46165,418.248326 739.769467,377.263413 755.514619,368.192632 C771.259772,359.121852 788.668047,368.448345 791.896601,372.618213 C795.125156,376.788081 813.615136,407.355129 821.729423,407.355129 C829.84371,407.355129 868.055696,405.905016 853.062347,298.050545 C853.228872,295.593848 886.380877,358.052351 906.668399,368.192632 C926.955921,378.332913 997.268687,394.716964 1005.69901,394.716964 C1011.31922,394.716964 1018.27318,409.879252 1026.56088,440.203827 C984.027937,444.921194 961.436896,455.082369 958.787761,470.687352 C954.814058,494.094827 957.507068,496.283989 972.926891,527.712037 C983.206774,548.66407 971.009883,561.997014 936.336219,567.710871 C923.460881,570.25075 916.286294,573.863809 914.812456,578.550046 C912.601699,585.579402 900.075906,632.950221 914.812456,677.473528 C924.636822,707.155733 915.906861,728.260934 888.622572,740.789132 C875.128021,719.874066 865.191706,708.203888 858.813627,705.778599 C849.246508,702.140665 804.503244,670.693236 800.20063,659.332334 C795.898016,647.971433 789.148091,601.411539 758.657447,593.156673 C728.166803,584.901806 712.630417,617.71549 696.088147,631.492435 C679.545876,645.26938 679.545876,625.539703 655.117059,631.492435 C630.688242,637.445166 628.902765,669.648007 628.902765,677.473528 C628.902765,685.299049 636.886055,726.56336 631.647234,735.376923 C630.782312,737.354326 612.215737,721.512397 612.215737,705.778599 C612.215737,690.0448 624.960902,645.89347 596.24687,619.525071 C567.532838,593.156673 552.701373,622.17071 544.231028,626.831572 C535.760683,631.492435 512.097049,622.17071 504.364835,626.831572 C496.632622,631.492435 445.676243,641.400936 458.169756,714.918304 C457.522526,716.349774 393.193296,718.113812 373.022395,770.719644 C352.851493,823.325476 399.490541,848.157958 399.490541,865.529631 C399.490541,882.901303 315.461169,912.486597 302.242539,912.486597 C289.02391,912.486597 254.337423,882.612728 233.013206,882.612728 C218.797061,882.612728 205.205167,892.570685 192.237524,912.486597 L131.716773,865.529631 C144.976725,860.742536 153.681954,852.722408 157.832462,841.469247 C164.058223,824.589506 162.504221,812.562223 175.698517,806.28655 C188.892813,800.010877 248.297289,815.393043 248.297289,767.566034 C248.297289,735.681361 193.026777,744.592593 82.4857526,794.299729 L23.52,677.473528 Z" id="Path-17" fill="#E39F47" mask="url(#mask-3)"></path>
            <path d="M209.84243,68.6987522 C200.0921,87.6299579 206.837515,97.0955608 230.078677,97.0955608 C264.940418,97.0955608 246.332205,73.1519713 267.962549,64.5582577 C289.592893,55.9645442 318.877881,79.7248441 343.174868,72.1415509 C367.471855,64.5582577 365.139029,38.7535042 387.885796,35.2033935 C410.632562,31.6532828 452.986129,29.0842248 465.799246,59.8964553 C474.341323,80.4379423 479.706291,94.0333283 481.894148,100.682613 C487.306618,96.4014461 487.306618,82.8060601 481.894148,59.8964553 C476.481678,36.9868505 476.481678,23.9530041 481.894148,20.7949163 C507.91701,10.8306582 521.772637,15.633484 523.461028,35.2033935 C525.993615,64.5582577 551.473398,39.648567 558.731527,39.648567 C565.989655,39.648567 569.277208,50.0368542 588.090041,50.0368542 C606.902873,50.0368542 598.154009,-1.47049376 625.592815,9.66221125 C643.885352,17.0840146 651.657694,31.9914651 648.909841,54.3845628 L646.379747,63.1643447 C660.671913,64.9343851 669.29774,56.4598729 672.257227,37.7408082 C676.696458,9.66221125 694.27533,25.5525343 702.148658,29.1906446 C710.021985,32.8287549 720.778755,19.8906639 731.584128,18.4241038 C738.78771,17.446397 753.593549,10.7774552 776.001647,-1.5827218 L681.22424,-58.02 L209.84243,-58.02 L209.84243,68.6987522 Z" id="Path-16" fill="#FFFFFF" mask="url(#mask-3)"></path>
        </g>
        <path d="M190.372208,494.56958 C190.372208,494.56958 172.045695,477.101509 195.363444,450.596687 C218.681193,424.091866 233.121379,434.198799 239.146037,424.429512 C245.170695,414.660225 234.59207,397.513096 248.859049,364.010506 C263.126029,330.507915 293.869873,326.498077 293.869873,307 C293.869873,287.501923 281.598623,280.91993 290.452861,260.215042 C299.307098,239.510155 329.506816,221.677437 373.284342,227.775642 C417.061869,233.873848 424.308563,312.490067 421.952911,330.996353 C419.59726,349.50264 407.508636,381.219238 386.403107,388.168762 C365.297577,395.118286 314.957672,376.959442 290.452861,414.785774 C265.948049,452.612106 250.318069,471.374207 228.658279,488.253784 C206.998489,505.133362 190.372208,494.56958 190.372208,494.56958 Z" id="Path-18" fill="#B66928"></path>
    </g>
</svg>