<?xml version="1.0" encoding="UTF-8"?>
<svg width="1000px" height="1000px" viewBox="0 0 1000 1000" version="1.1" xmlns="http://www.w3.org/2000/svg" xmlns:xlink="http://www.w3.org/1999/xlink">
    <!-- Generator: Sketch 61 (89581) - https://sketch.com -->
    <title>sun</title>
    <desc>Created with Sketch.</desc>
    <defs>
        <radialGradient cx="47.8383445%" cy="50%" fx="47.8383445%" fy="50%" r="46.2390091%" gradientTransform="translate(0.478383,0.500000),scale(0.919492,1.000000),rotate(90.000000),translate(-0.478383,-0.500000)" id="radialGradient-1">
            <stop stop-color="#F4985B" offset="0%"></stop>
            <stop stop-color="#F36D14" offset="100%"></stop>
        </radialGradient>
        <radialGradient cx="50%" cy="0%" fx="50%" fy="0%" r="100%" gradientTransform="translate(0.500000,0.000000),scale(0.919492,1.000000),rotate(90.000000),translate(-0.500000,-0.000000)" id="radialGradient-2">
            <stop stop-color="#F8AB71" offset="0%"></stop>
            <stop stop-color="#F7A54D" offset="100%"></stop>
        </radialGradient>
        <radialGradient cx="47.2381106%" cy="46.8344325%" fx="47.2381106%" fy="46.8344325%" r="58.6884763%" id="radialGradient-3">
            <stop stop-color="#F8AF76" offset="0%"></stop>
            <stop stop-color="#EC6722" offset="100%"></stop>
        </radialGradient>
        <circle id="path-4" cx="334" cy="334" r="334"></circle>
        <filter x="-9.4%" y="-9.4%" width="118.7%" height="118.7%" filterUnits="objectBoundingBox" id="filter-6">
            <feGaussianBlur stdDeviation="24.5" in="SourceAlpha" result="shadowBlurInner1"></feGaussianBlur>
            <feOffset dx="-60" dy="-60" in="shadowBlurInner1" result="shadowOffsetInner1"></feOffset>
            <feComposite in="shadowOffsetInner1" in2="SourceAlpha" operator="arithmetic" k2="-1" k3="1" result="shadowInnerInner1"></feComposite>
            <feColorMatrix values="0 0 0 0 0.865988911   0 0 0 0 0.0177022993   0 0 0 0 0.0177022993  0 0 0 0.5 0" type="matrix" in="shadowInnerInner1"></feColorMatrix>
        </filter>
    </defs>
    <g id="sun" stroke="none" stroke-width="1" fill="none" fill-rule="evenodd">
        <path d="M434.705059,125.169574 C441.064681,145.103256 447.31028,155.070098 453.441856,155.070098 C459.573432,155.070098 466.632947,120.713398 474.620402,52 C479.165186,127.365361 486.821135,165.048042 497.588249,165.048042 C508.355363,165.048042 522.667247,146.206702 540.523902,108.524021 C532.136068,139.554739 532.136068,155.070098 540.523902,155.070098 C548.911735,155.070098 567.886989,133.794455 597.449664,91.2431697 C574.908463,142.853013 571.501489,172.327582 587.22874,179.666877 C614.457914,190.675592 662.611346,169.397779 731.689035,115.833438 C695.481921,166.533081 679.6681,197.294826 684.247572,208.118675 C688.827045,218.942523 710.154453,221.099021 748.229799,214.588168 C739.452839,221.176333 736.638475,226.049257 739.786706,229.20694 C742.934936,232.364622 773.189405,223.986971 830.550113,204.073987 C768.460234,241.177057 741.020129,268.288869 748.229799,285.409422 C768.372054,305.751669 812.413909,305.751669 880.355362,285.409422 C835.631096,319.412532 814.898318,342.554419 818.157028,354.835082 C821.415738,367.115745 850.516609,370.193874 905.459639,364.069468 C852.387507,396.898318 825.851441,418.590817 825.851441,429.146965 C825.851441,439.703114 874.567627,439.703114 972,429.146965 C885.198735,455.942083 841.798103,477.59864 841.798103,494.116635 C841.798103,510.634631 864.231642,519.176706 909.098719,519.742861 C843.257806,538.900725 810.337349,553.664603 810.337349,564.034495 C810.337349,574.404388 822.449868,588.636544 846.674906,606.730965 C813.180063,608.761782 794.364536,616.538895 790.228323,630.062303 C786.092111,643.585711 796.50392,669.421328 821.463751,707.569153 C792.801861,702.205442 774.550683,705.165429 766.710216,716.449115 C758.869749,727.732801 766.709118,752.72206 790.228323,791.416894 C759.972382,772.292366 740.459286,765.935537 731.689035,772.346407 C722.918783,778.757277 725.618007,803.262556 739.786706,845.862242 C700.593206,816.170701 675.188686,803.459254 663.573146,807.727902 C651.957606,811.996549 648.523421,842.108291 653.270591,898.063127 C618.757146,845.688717 592.374834,821.7113 574.123656,826.130874 C555.872478,830.550449 544.67256,850.887838 540.523902,887.143043 C522.234621,857.525994 507.922737,843.765727 497.588249,845.862242 C487.253761,847.958758 473.84244,871.092144 457.354285,915.262403 C455.771423,868.995629 449.682564,845.862242 439.087707,845.862242 C423.195423,845.862242 372.687169,920 372.687169,920 C372.687169,920 397.793323,835.203444 387.789912,835.203444 C381.120972,835.203444 373.035118,838.756377 363.532351,845.862242 C365.498929,823.322786 363.035449,810.611339 356.14191,807.727902 C349.248372,804.844465 327.815467,831.316178 291.843195,887.143043 C310.929728,841.792805 317.87447,816.472934 312.677421,811.183431 C307.480371,805.893928 292.168885,817.453532 266.742961,845.862242 C291.673888,803.965252 302.089992,781.238365 297.991273,777.681582 C278.131615,760.300312 234.56087,791.80597 167.279039,872.198554 C232.416981,774.285569 258.335248,722.369089 245.033838,716.449115 C231.732429,710.529141 201.762466,723.846445 155.123951,756.401028 C189.693406,711.23301 204.434994,683.407038 199.348715,672.923111 C194.262436,662.439184 154.699391,663.585895 80.6595827,676.363245 C138.405887,652.901683 167.279039,634.794361 167.279039,622.041279 C167.59692,598.072308 125.965027,581.969362 42.3833611,573.732439 C79.0677896,571.557989 97.4100039,566.264591 97.4100039,557.852247 C97.4100039,549.439902 74.2733359,539.911229 28,529.266227 C108.329716,526.365655 148.494573,515.8806 148.494573,497.811063 C148.494573,479.741526 119.646142,462.517969 61.9492793,446.140392 C110.509521,441.025398 134.789642,433.638094 134.789642,423.978481 C134.789642,414.318867 110.509521,402.327212 61.9492793,388.003514 C128.446002,386.012259 161.694363,378.034244 161.694363,364.069468 C161.694363,350.104693 147.402864,336.68459 118.819865,323.809159 C167.696922,326.309951 194.539873,322.623044 199.348715,312.748438 C204.157558,302.873832 189.415969,285.444149 155.123951,260.459387 C202.769792,274.20546 230.265117,276.76139 237.609926,268.127177 C244.954734,259.492964 244.954734,243.980391 237.609926,221.589458 C244.059837,223.917208 248.732048,223.917208 251.626559,221.589458 C254.52107,219.261709 254.52107,209.039967 251.626559,190.924232 C272.897798,216.035243 287.902642,226.256985 296.641093,221.589458 C305.379544,216.921932 306.617136,190.868409 300.353869,143.428891 C319.932696,175.232417 335.634364,188.510629 347.458876,183.263526 C359.283387,178.016422 364.641212,154.245326 363.532351,111.950235 C383.346892,155.260801 398.01971,176.916083 407.550805,176.916083 C417.0819,176.916083 426.133318,159.667247 434.705059,125.169574 Z" id="Path-4" stroke="url(#radialGradient-2)" stroke-width="7" fill="url(#radialGradient-1)" stroke-linejoin="round"></path>
        <g id="Path" transform="translate(166.000000, 166.000000)">
            <mask id="mask-5" fill="white">
                <use xlink:href="#path-4"></use>
            </mask>
            <g id="Mask">
                <use fill="url(#radialGradient-3)" fill-rule="evenodd" xlink:href="#path-4"></use>
                <use fill="black" fill-opacity="1" filter="url(#filter-6)" xlink:href="#path-4"></use>
                <circle stroke="#BC0000" stroke-width="8" cx="334" cy="334" r="338"></circle>
            </g>
            <path d="M28.3956085,472 C-10.5443311,332.975963 7.54976203,220.528881 82.6778877,134.658753 C195.370076,5.85356076 294.480287,-0.413281857 351,-0.413281857 C348.691833,-0.790045676 256.235535,-7.43192091 124.966896,35.3816063 C113.518115,39.1156492 87.8493326,58.1431377 47.9605504,92.4640718 L-16,291.289287 L-0.708408452,472 L28.3956085,472 Z" id="Path-2" fill="#FEFEE4" mask="url(#mask-5)"></path>
        </g>
    </g>
</svg>