<?xml version="1.0" encoding="UTF-8"?>
<svg width="1000px" height="1000px" viewBox="0 0 1000 1000" version="1.1" xmlns="http://www.w3.org/2000/svg" xmlns:xlink="http://www.w3.org/1999/xlink">
    <!-- Generator: Sketch 61 (89581) - https://sketch.com -->
    <title>venus</title>
    <desc>Created with Sketch.</desc>
    <defs>
        <ellipse id="path-1" cx="491.02" cy="490.48" rx="490.5" ry="490"></ellipse>
    </defs>
    <g id="venus" stroke="none" stroke-width="1" fill="none" fill-rule="evenodd">
        <ellipse id="Oval" stroke="#000000" stroke-width="25" fill="#979CA1" cx="500.5" cy="499.5" rx="490.5" ry="490"></ellipse>
        <g id="Path-2" transform="translate(9.480000, 9.020000)">
            <mask id="mask-2" fill="white">
                <use xlink:href="#path-1"></use>
            </mask>
            <use id="Mask" fill="#800E08" xlink:href="#path-1"></use>
            <path d="M445.494056,-9.02 C443.576972,177.476047 413.626609,275.222499 355.642968,284.219357 C268.667506,297.714644 228.743193,231.096294 251.830275,208.246906 C274.917356,185.397518 368.822062,227.011695 362.232515,182.874013 C357.839483,153.448892 261.639195,126.87801 73.631649,103.161366 L18.52,208.246906 C136.696435,250.263064 195.784653,296.726831 195.784653,347.638207 C195.784653,424.00527 97.086449,448.848003 73.631649,521.675977 C50.1768489,594.503951 52.3737986,669.809223 232.007028,715.499846 C351.762514,745.960262 331.854093,820.262956 172.281764,938.407929 L280.355591,980.48 C417.825087,874.185866 472.871242,791.912064 445.494056,733.658593 C404.428277,646.278387 223.816118,668.28432 204.933635,589.03432 C186.051152,509.78432 193.626323,429.112716 373.049306,406.716006 C552.472289,384.319297 450.101913,231.096294 552.472289,231.096294 C654.842665,231.096294 597.662669,435.100946 521.644891,448.848003 C445.627112,462.59506 385.893443,507.802268 415.693749,581.764833 C445.494056,655.727398 685.433186,655.727398 685.433186,733.658593 C685.433186,811.589788 578.085821,766.289609 528.235089,825.49721 C495.001268,864.968945 521.012804,916.629874 606.269699,980.48 L795.061566,938.407929 C707.358147,934.832594 670.815354,911.508505 685.433186,868.435663 C707.359934,803.826399 832.152853,899.605667 824.944452,749.816948 C817.736051,600.028229 668.774975,650.532383 606.269699,581.764833 C543.764422,512.997284 646.356763,482.792372 757.702263,483.292372 C869.047762,483.792372 858.160419,601.835639 905.826559,635.152518 C937.603985,657.363771 977.251726,648.407606 1024.76978,608.284023 L1024.76978,424.00527 C998.126085,357.665636 965.927052,337.724477 928.172681,364.181793 C871.541126,403.867767 741.723388,448.848003 685.433186,406.716006 C629.142984,364.584009 672.962077,253.945682 757.702263,231.096294 C842.442448,208.246906 864.67712,178.602504 864.67712,103.161366 C864.67712,52.867274 829.018834,23.3423293 757.702263,14.5865317 C788.096309,119.664635 788.096309,172.203687 757.702263,172.203687 C712.111194,172.203687 660.067108,103.161366 606.269699,103.161366 C552.472289,103.161366 521.644891,182.874013 491.02,160.146064 C460.395109,137.418115 498.674879,-26.2009874 552.472289,-26.2009874 C588.337229,-26.2009874 578.061429,-64.0601797 521.644891,-139.778564 L445.494056,-9.02 Z" id="Path-3" stroke="#F68843" stroke-width="9" fill="#E31B1A" mask="url(#mask-2)"></path>
        </g>
        <ellipse id="Oval" fill="#641313" cx="365" cy="547.5" rx="25" ry="24.5"></ellipse>
        <path d="M47.0033952,686.316414 C15.8482536,529.594279 23.0011159,398.912956 68.4619821,294.272447 C115.944346,183.715949 220.633454,94.6251331 382.529306,27 C247.416159,102.817819 150.507852,197.242337 91.8043858,310.273554 C46.0984117,413.462129 31.1647482,538.809749 47.0033952,686.316414 Z" id="Path-5" fill="#EDEDED"></path>
        <ellipse id="Oval" fill="#F37978" transform="translate(308.000000, 362.500000) rotate(46.000000) translate(-308.000000, -362.500000) " cx="308" cy="362.5" rx="25" ry="34.5"></ellipse>
        <ellipse id="Oval" fill="#B2100F" transform="translate(648.049328, 217.696831) rotate(-23.000000) translate(-648.049328, -217.696831) " cx="648.049328" cy="217.696831" rx="15.5" ry="21.5"></ellipse>
        <ellipse id="Oval" fill="#CD0908" transform="translate(503.660281, 565.651152) rotate(-33.000000) translate(-503.660281, -565.651152) " cx="503.660281" cy="565.651152" rx="25" ry="34.5"></ellipse>
        <ellipse id="Oval" fill="#820909" transform="translate(623.242850, 900.810834) rotate(14.000000) translate(-623.242850, -900.810834) " cx="623.24285" cy="900.810834" rx="19" ry="26.5"></ellipse>
        <ellipse id="Oval" fill="#B31A19" transform="translate(382.675629, 793.745881) rotate(-101.000000) translate(-382.675629, -793.745881) " cx="382.675629" cy="793.745881" rx="11" ry="15.5"></ellipse>
        <ellipse id="Oval" fill="#F37978" transform="translate(692.493537, 210.765183) rotate(-23.000000) translate(-692.493537, -210.765183) " cx="692.493537" cy="210.765183" rx="8" ry="11"></ellipse>
        <path d="M799.69695,293.239357 C747.195146,289.930207 720.944245,307.637895 720.944245,346.362421 C720.944245,385.086946 752.943428,394.033404 816.941794,373.201793 C861.703983,361.161781 881.815774,347.07392 877.277168,330.93821 C872.738562,314.802499 846.878489,302.236215 799.69695,293.239357 Z" id="Path-11" fill="#631010"></path>
        <path d="M297.42164,478.582924 C265.650118,478.582924 248.913953,509.095366 248.913953,544.050541 C248.913953,579.005715 256.870249,599.098501 277.460412,608.201262 C288.201805,612.949954 388.238548,656.71001 404.268851,654.815227 C418.967017,653.077902 399.989749,608.201262 377.315925,599.749315 C358.841021,592.862568 297.58784,573.749156 308,544.050541 C318.41216,514.351925 357.331677,500.388598 350.183682,491.6535 C343.035688,482.918402 329.193162,478.582924 297.42164,478.582924 Z" id="Path-12" fill="#9D2323"></path>
    </g>
</svg>