<?xml version="1.0" encoding="UTF-8"?>
<svg width="1000px" height="1000px" viewBox="0 0 1000 1000" version="1.1" xmlns="http://www.w3.org/2000/svg" xmlns:xlink="http://www.w3.org/1999/xlink">
    <!-- Generator: Sketch 61 (89581) - https://sketch.com -->
    <title>venus</title>
    <desc>Created with Sketch.</desc>
    <defs>
        <ellipse id="path-1" cx="491.02" cy="490.48" rx="490.5" ry="490"></ellipse>
    </defs>
    <g id="venus" stroke="none" stroke-width="1" fill="none" fill-rule="evenodd">
        <ellipse id="Oval" stroke="#000000" stroke-width="25" fill="#979CA1" cx="500.5" cy="499.5" rx="490.5" ry="490"></ellipse>
        <g id="Path-2" transform="translate(9.480000, 9.020000)">
            <mask id="mask-2" fill="white">
                <use xlink:href="#path-1"></use>
            </mask>
            <use id="Mask" fill="#F5AC5C" xlink:href="#path-1"></use>
            <path d="M-28.5832313,622.989012 C-5.08040832,615.368206 -13.9737447,532.528333 8.97491385,528.556008 C24.2740196,525.907791 37.0514013,550.896894 47.3070591,603.523317 C59.6183154,591.833651 70.9747514,587.83774 81.3763669,591.535584 C96.9787901,597.08235 134.828014,672.782124 165.723903,665.791326 C182.135863,661.011124 184.862616,644.373883 192.285308,640.378038 C199.707999,636.382193 207.5196,636.255208 228.611182,620.998037 C249.702764,605.740865 252.918105,536.100393 279.499011,531.574264 C297.219614,528.556845 312.303093,542.113688 324.749448,572.244793 C325.889564,575.644526 328.529894,576.21507 332.670438,573.956425 C338.881255,570.568457 364.261333,548.539592 378.868814,548.546164 C393.476295,548.552736 387.424121,557.666423 413.778892,565.467846 C440.133663,573.269269 507.248783,554.507699 523.751687,508.453326 C540.254592,462.398953 473.014692,497.532602 483.221022,463.400011 C493.427353,429.26742 561.724622,404.248091 561.709434,370.475593 C561.694247,336.703096 532.854256,305.914699 511.326952,289.243175 C496.975416,278.128826 489.142061,266.041101 487.826886,252.98 C498.108377,257.567021 507.58849,265.609521 516.267224,277.107499 C529.285325,294.354466 557.840434,313.217039 568.433943,318.464311 C579.027451,323.711582 594.507749,338.336421 597.149516,353.393606 C599.791282,368.450791 581.419849,465.00558 603.730458,502.136669 C626.041067,539.267758 667.174097,533.025103 682.050342,538.869992 C708.537658,549.27688 686.871978,502.716859 724.905647,479.863925 C762.939316,457.010991 779.411949,518.42566 782.245688,488.780662 C785.079428,459.135663 720.358137,323.82778 738.297514,313.495961 C756.236891,303.164141 776.081083,313.804449 779.762655,318.559388 C783.444228,323.314326 804.532077,358.167555 813.779558,358.171716 C823.027038,358.175876 871.852132,399.637546 854.709615,276.685241 C854.898137,273.884908 968.564687,459.612417 986.154061,495.445537 C997.88031,519.334283 983.986909,534.526414 944.473857,541.02193 C929.801728,543.910568 921.627032,548.025458 919.949769,553.366601 C917.433874,561.378316 903.183085,615.370464 920.000477,666.130677 C931.212072,699.970819 921.273755,724.024417 890.185526,738.291472 C874.795685,714.443216 863.465741,701.135144 856.195694,698.367257 C845.290623,694.215426 794.282662,658.34518 789.373346,645.392545 C784.464031,632.439909 776.747585,579.362262 741.994568,569.936806 C707.241551,560.51135 689.552266,597.908099 670.706862,613.604124 C651.861458,629.300149 651.851345,606.810052 624.013996,613.583117 C596.176647,620.356182 594.158328,657.063675 594.16234,665.984081 C594.166351,674.904488 603.285692,721.946269 597.319766,731.99027 C596.335068,734.243891 575.167475,716.175965 575.15941,698.240818 C575.151345,680.30567 589.653791,629.983569 556.916212,599.911189 C524.178632,569.83881 517.6786,648.238806 508.027726,653.547436 C498.376852,658.856067 461.015883,602.883839 452.206224,608.192848 C443.396565,613.501857 384.273004,611.258083 398.548972,695.067827 C398.062822,696.144135 421.290664,789.810779 392.925945,807.737731 C378.296744,816.983617 310.407755,751.744615 302.595037,772.14526 C279.634154,832.100942 332.799263,860.431702 332.808167,880.233883 C332.817072,900.036063 237.067823,933.710837 222.003158,933.710837 C206.938493,933.710837 167.392585,899.632688 143.090354,899.621754 C126.888867,899.614465 116.287794,906.960713 111.287134,921.660496 C83.6740326,889.52054 65.7080628,866.528126 57.3892245,852.683254 C44.910967,831.915947 62.698596,819.734182 77.7323119,812.587232 C92.7660277,805.440281 160.474464,823.005058 160.449948,768.48647 C160.433604,732.140745 108.451652,730.867794 4.50409324,764.667616 C-33.2226718,675.295751 -44.25178,628.06955 -28.5832313,622.989012 Z" id="Path-17" fill="#F6DC6E" mask="url(#mask-2)"></path>
            <path d="M200.772002,1091.59988 C221.023636,1076.3769 224.11093,1006.89249 249.633283,1002.37651 C266.648184,999.365851 281.130981,1012.89231 293.081675,1042.95589 C294.176387,1046.34801 296.711569,1046.91727 300.687221,1044.66369 C306.650699,1041.28331 331.020046,1019.30382 345.045801,1019.31037 C359.071556,1019.31693 353.260403,1028.41019 378.565627,1036.19413 C403.87085,1043.97807 468.31319,1025.25855 484.158885,979.307386 C500.004581,933.356224 435.44243,968.411137 445.242306,934.355039 C455.042181,900.298942 520.619592,875.335683 520.60501,841.638872 C520.590427,807.942061 492.898955,777.222664 472.22895,760.588502 C458.448947,749.499061 450.927546,737.438426 449.664747,724.406596 C459.53679,728.983337 468.639368,737.007812 476.972481,748.480023 C489.472152,765.688338 516.890088,784.508639 527.061722,789.744151 C537.233357,794.979662 552.09717,809.571726 554.633731,824.595167 C557.170293,839.618608 539.53048,935.95701 560.952596,973.004885 C582.374711,1010.05276 621.869666,1003.8241 636.153483,1009.65589 C661.585973,1020.03945 640.783103,973.583775 677.302126,950.782056 C713.821149,927.980337 715.963824,958.077019 718.684713,928.498457 C721.405602,898.919895 672.935715,795.095601 690.160677,784.786935 C707.38564,774.47827 726.43956,785.094733 729.974519,789.839015 C733.509477,794.583297 753.757528,829.358417 762.636738,829.362568 C771.515949,829.36672 813.329414,827.73697 796.869576,705.060211 C797.050591,702.266154 833.358533,773.32076 855.563524,784.864263 C863.271037,788.871097 823.071853,860.759493 782.665434,906.964224 C706.662815,993.873201 597.879379,1079.7894 580.428365,1084.20157 C553.699606,1090.95946 547.436515,1100.56527 516.002671,1070.56029 C484.568827,1040.5553 478.327651,1118.7796 469.061111,1124.07633 C459.794572,1129.37306 423.92146,1073.52627 415.462635,1078.82338 C412.185963,1080.87531 402.553468,1156.13379 336.615047,1162.55358 C270.676625,1168.97336 188.36519,1100.92597 200.772002,1091.59988 Z" id="Path-17" fill="#FDE582" mask="url(#mask-2)"></path>
            <path d="M164.82334,72.4516995 C134.592833,116.133859 144.034152,224.16907 120.591266,224.16907 C97.1483804,224.16907 77.3311331,174.286026 49.3138299,174.286026 C21.2965267,174.286026 27.3993608,261.335188 49.3138299,273.1925 C71.228299,285.049811 164.82334,272.253336 164.82334,320.969491 C164.82334,369.685645 232.236312,368.608635 242.514235,358.125716 C252.792158,347.642797 253.129751,258.260126 222.754235,247.814869 C202.503891,240.851365 183.193593,249.310575 164.82334,273.1925 C157.282305,224.256389 157.282305,191.287564 164.82334,174.286026 C176.134894,148.783719 260.52,126.023463 260.52,105.296176 C260.52,84.56889 219.90953,105.296176 202.857983,105.296176 C185.806436,105.296176 195.053848,28.7695398 164.82334,72.4516995 Z" id="Path-3" fill="#D48C45" mask="url(#mask-2)"></path>
        </g>
    </g>
</svg>