<?xml version="1.0" encoding="UTF-8"?>
<svg width="1000px" height="1000px" viewBox="0 0 1000 1000" version="1.1" xmlns="http://www.w3.org/2000/svg" xmlns:xlink="http://www.w3.org/1999/xlink">
    <!-- Generator: Sketch 61 (89581) - https://sketch.com -->
    <title>venus</title>
    <desc>Created with Sketch.</desc>
    <defs>
        <ellipse id="path-1" cx="491.02" cy="490.48" rx="490.5" ry="490"></ellipse>
        <radialGradient cx="50%" cy="50%" fx="50%" fy="50%" r="100%" gradientTransform="translate(0.500000,0.500000),scale(0.612489,1.000000),rotate(90.000000),translate(-0.500000,-0.500000)" id="radialGradient-3">
            <stop stop-color="#FFD9AC" offset="0%"></stop>
            <stop stop-color="#FFDC46" offset="100%"></stop>
        </radialGradient>
        <linearGradient x1="50%" y1="0%" x2="50%" y2="100%" id="linearGradient-4">
            <stop stop-color="#C77A43" offset="0%"></stop>
            <stop stop-color="#89451C" offset="100%"></stop>
        </linearGradient>
    </defs>
    <g id="venus" stroke="none" stroke-width="1" fill="none" fill-rule="evenodd">
        <ellipse id="Oval" stroke="#000000" stroke-width="25" fill="#979CA1" cx="500.5" cy="499.5" rx="490.5" ry="490"></ellipse>
        <g id="Path-2" transform="translate(9.480000, 9.020000)">
            <mask id="mask-2" fill="white">
                <use xlink:href="#path-1"></use>
            </mask>
            <use id="Mask" fill="#E3832E" xlink:href="#path-1"></use>
            <path d="M-3.48,663.151601 C1.32279777,635.309151 8.54007867,619.530114 18.1718427,615.814488 C32.6194888,610.24105 41.2035495,627.290942 65.2419892,619.490516 C89.2804289,611.69009 80.2238397,527.019295 103.693891,522.948424 C119.340591,520.23451 132.395766,545.771279 142.859414,599.55873 C155.454777,587.604461 167.070164,583.514813 177.705576,587.289786 C193.658692,592.952245 232.330024,670.311463 263.928622,663.151601 C280.714353,658.257965 283.510491,641.250933 291.103073,637.163161 C298.695654,633.075389 306.684171,632.941999 328.26029,617.337162 C349.836408,601.732325 353.156572,530.547746 380.34136,525.909133 C398.464551,522.816725 413.883291,536.666933 426.59758,567.459759 C427.761945,570.934276 430.46179,571.516244 434.697117,569.205663 C441.050106,565.739791 467.014929,543.211286 481.953125,543.211286 C496.891321,543.211286 490.697934,552.529637 517.645798,560.491752 C544.593663,568.453867 613.236921,549.245839 630.134635,502.163712 C647.03235,455.081585 578.253958,491.024412 588.70706,456.131046 C599.160162,421.237679 669.01521,395.632731 669.01521,361.112135 C669.01521,326.591539 639.536431,295.134402 617.529407,278.103482 C602.858058,266.749535 594.852912,254.397653 593.513968,241.047836 C604.026126,245.731738 613.717173,253.948029 622.587109,265.696712 C635.892013,283.319735 665.084946,302.587008 675.915882,307.945642 C686.746819,313.304275 702.57087,328.245955 705.265523,343.635462 C707.960175,359.024968 689.128404,457.727021 711.927058,495.670353 C734.725711,533.613684 776.792878,527.21383 792.003239,533.18135 C819.085451,543.806584 796.950664,496.225161 835.855938,472.848514 C874.761212,449.471867 891.578548,512.239377 894.490077,481.936399 C897.401606,451.633421 831.277226,313.358054 849.627509,302.789121 C867.977791,292.220188 888.266369,303.087068 892.029107,307.945642 C895.791845,312.804215 917.341103,348.419791 926.797948,348.419791 C936.254792,348.419791 980.789179,346.730173 963.315091,221.062197 C963.509169,218.199745 1002.14637,290.974047 1025.79059,302.789121 C1049.4348,314.604196 1131.38123,333.694276 1141.2064,333.694276 C1147.75651,333.694276 1155.86104,351.360804 1165.52,386.69386 C1115.94972,392.190359 1089.62086,404.029778 1086.53341,422.212118 C1081.90223,449.485629 1085.04082,452.036357 1103.01194,488.655139 C1114.99269,513.06766 1100.77775,528.602706 1060.36712,535.260277 C1045.36148,538.219649 1036.99982,542.429449 1035.28213,547.889677 C1032.70559,556.080018 1018.10732,611.274717 1035.28213,663.151601 C1046.73199,697.736191 1036.55761,722.327179 1004.75897,736.924564 C989.031663,712.555115 977.451325,698.957462 970.017955,696.131606 C958.867899,691.892822 906.721595,655.251459 901.707087,642.014164 C896.69258,628.776868 888.825839,574.527029 853.290336,564.908769 C817.754833,555.290509 799.647859,593.52378 780.368571,609.576159 C761.089282,625.628537 761.089282,602.64026 732.618571,609.576159 C704.14786,616.512057 702.066966,654.033598 702.066966,663.151601 C702.066966,672.269604 711.371139,720.349229 705.265523,730.618462 C704.257495,732.922457 682.618969,714.464037 682.618969,696.131606 C682.618969,677.799175 697.472897,626.355703 664.007957,595.632236 C630.543017,564.908769 623.859767,645.048417 613.987953,650.479079 C604.116139,655.909741 565.935045,598.714835 556.92349,604.145497 C547.911936,609.576159 487.450829,607.309872 502.011468,692.969547 C501.513816,694.06992 525.224471,789.800721 496.20932,808.137823 C481.244658,817.595245 411.848639,750.942333 403.849657,771.798472 C380.34136,833.092811 434.697117,862.026686 434.697117,882.267506 C434.697117,902.508327 336.764582,936.98 321.358851,936.98 C305.95312,936.98 265.527547,902.17209 240.67511,902.17209 C224.106819,902.17209 208.266065,913.774727 193.152848,936.98 L122.618576,882.267506 C138.072467,876.689764 148.218029,867.345012 153.055262,854.233252 C160.311113,834.565611 158.499992,820.551873 173.877363,813.239694 C189.254734,805.927516 258.488036,823.850239 258.488036,768.124004 C258.488036,730.973181 194.072687,741.356213 65.2419892,799.273102 L-3.48,663.151601 Z" id="Path-17" fill="url(#radialGradient-3)" mask="url(#mask-2)" transform="translate(581.020000, 578.980000) rotate(-149.000000) translate(-581.020000, -578.980000) "></path>
            <path d="M273.720613,592.738818 C242.837955,637.351965 252.482948,747.689702 228.534338,747.689702 C204.585728,747.689702 184.340971,696.743514 155.719262,696.743514 C127.097552,696.743514 133.332041,785.647932 155.719262,797.757956 C178.106483,809.86798 273.720613,796.798776 273.720613,846.553206 C273.720613,896.307636 342.587857,895.207671 353.087502,884.501333 C363.587147,873.794994 363.932023,782.507333 332.901228,771.839459 C312.214031,764.727543 292.487159,773.367042 273.720613,797.757956 C266.016897,747.778882 266.016897,714.107402 273.720613,696.743514 C285.276186,670.697683 371.481698,647.452343 371.481698,626.283301 C371.481698,605.114259 329.995155,626.283301 312.575762,626.283301 C295.156368,626.283301 304.603271,548.125672 273.720613,592.738818 Z" id="Path-3" fill="url(#linearGradient-4)" mask="url(#mask-2)"></path>
        </g>
    </g>
</svg>